<?xml version="1.0" encoding="utf-8"?>
<!-- Generator: Adobe Illustrator 19.1.0, SVG Export Plug-In . SVG Version: 6.00 Build 0)  -->
<svg version="1.1" id="Layer_1" xmlns="http://www.w3.org/2000/svg" xmlns:xlink="http://www.w3.org/1999/xlink" x="0px" y="0px"
	 viewBox="0 0 337.5 205.5" style="enable-background:new 0 0 337.5 205.5;" xml:space="preserve">
<style type="text/css">
	.st0{opacity:0.6;fill-rule:evenodd;clip-rule:evenodd;fill:#111820;}
	.st1{fill-rule:evenodd;clip-rule:evenodd;fill:#231F20;}
	.st2{fill-rule:evenodd;clip-rule:evenodd;fill:none;stroke:#231F20;stroke-miterlimit:10;}
</style>
<g>
	<path class="st0" d="M83.3,60.2c0,0,8.6-7.7,21.8-7.7c0,0-32.9-13.4-58.8,11C46.4,63.6,68.5,53.7,83.3,60.2L83.3,60.2z"/>
	<path class="st0" d="M78.8,65.2c0,0-29,12.5-47.8,45.1C31,110.4,18.1,64,78.8,65.2L78.8,65.2z"/>
	<path class="st0" d="M71.8,78.2c0,0-29,46.1,3.1,93.4C74.9,171.6-14.9,125.6,71.8,78.2L71.8,78.2z"/>
	<path class="st0" d="M71.9,88.6c0,0,10.2,51.8,79.7,74C151.6,162.6,50.9,219.1,71.9,88.6L71.9,88.6z"/>
	<path class="st0" d="M89.4,106.8c0,0,27,17.5,83,16.3c0,0-2.2,15.7-14,29C158.4,152.1,125.6,150.6,89.4,106.8L89.4,106.8z"/>
	<path class="st0" d="M104.9,106.3c0,0,44,1.8,71.2-15.7c0,0,3,11.8,1,23.3C177.1,113.8,135.9,117.8,104.9,106.3L104.9,106.3z"/>
	<path class="st0" d="M158.9,55.6c0,0-10.5,34-37,45.5c0,0,30.3-0.8,51-21.7C172.9,79.3,169.1,66.3,158.9,55.6L158.9,55.6z"/>
	<path class="st0" d="M103.9,57.2C87,59.9,74.7,71.7,76.5,83.6c1.8,11.9,17,19.5,33.9,16.9c16.9-2.6,29.1-14.4,27.3-26.4
		C135.9,62.2,120.8,54.6,103.9,57.2L103.9,57.2z"/>
	<polygon class="st1" points="192.7,90.9 206.4,90.9 206.4,143.5 192.7,143.5 192.7,90.9 	"/>
	<polygon class="st1" points="209.8,90.9 253.5,90.9 253.5,102.2 238.5,102.2 238.5,143.5 224.8,143.5 224.8,102.2 209.8,102.2 
		209.8,90.9 	"/>
	<polygon class="st1" points="291.8,132.2 313.2,132.2 313.2,143.5 278.1,143.5 278.1,90.9 291.8,90.9 291.8,132.2 	"/>
	<polygon class="st1" points="257,90.9 270.7,90.9 270.7,143.5 257,143.5 257,90.9 	"/>
	<polygon class="st1" points="149.8,48.2 149.8,40.4 152,40.4 153.3,45.7 154.6,40.4 156.8,40.4 156.8,48.2 155.4,48.2 155.4,42.1 
		154,48.2 152.6,48.2 151.2,42.1 151.2,48.2 149.8,48.2 	"/>
	<polygon class="st1" points="145.3,48.2 145.3,41.7 143.2,41.7 143.2,40.4 148.9,40.4 148.9,41.7 146.8,41.7 146.8,48.2 
		145.3,48.2 	"/>
	<path class="st2" d="M320.1,89.7c4,0,7.2,3.2,7.2,7.2c0,4-3.2,7.2-7.2,7.2s-7.2-3.2-7.2-7.2C312.9,92.9,316.1,89.7,320.1,89.7
		L320.1,89.7z"/>
	<path class="st1" d="M322.8,99.4c-0.3-0.6-0.6-1-0.8-1.3c-0.2-0.2-0.5-0.5-0.8-0.7c0.6-0.1,1.1-0.3,1.4-0.7
		c0.3-0.4,0.5-0.9,0.5-1.4c0-0.5-0.1-0.9-0.3-1.2c-0.2-0.4-0.5-0.6-0.8-0.7c-0.3-0.1-0.9-0.2-1.7-0.2h-3.1v7.8h1.5v-3.3h0.3
		c0.3,0,0.6,0,0.7,0.1c0.2,0.1,0.3,0.2,0.4,0.3c0.1,0.2,0.4,0.5,0.8,1.1l1,1.7h1.7L322.8,99.4z M319.8,96.5h-1.1v-2h1.1
		c0.6,0,0.9,0,1.1,0c0.2,0,0.4,0.1,0.5,0.3c0.1,0.2,0.2,0.4,0.2,0.6c0,0.2-0.1,0.4-0.1,0.6c-0.1,0.2-0.2,0.3-0.4,0.3
		C320.9,96.4,320.5,96.5,319.8,96.5z"/>
</g>
</svg>
