<?xml version="1.0" encoding="UTF-8"?>
<!DOCTYPE svg PUBLIC "-//W3C//DTD SVG 1.0//EN" "http://www.w3.org/TR/2001/REC-SVG-20010904/DTD/svg10.dtd">
<!-- Creator: CorelDRAW X7 -->
<svg xmlns="http://www.w3.org/2000/svg" xml:space="preserve" width="23.216mm" height="29.0995mm" version="1.0" style="shape-rendering:geometricPrecision; text-rendering:geometricPrecision; image-rendering:optimizeQuality; fill-rule:evenodd; clip-rule:evenodd"
viewBox="0 0 2270 2846"
 xmlns:xlink="http://www.w3.org/1999/xlink">
 <defs>
  <style type="text/css">
   <![CDATA[
    .str0 {stroke:#201E1E;stroke-width:16.557}
    .fil0 {fill:none}
    .fil1 {fill:#201E1E}
   ]]>
  </style>
 </defs>
 <g id="Layer_x0020_1">
  <metadata id="CorelCorpID_0Corel-Layer"/>
  <path class="fil0 str0" d="M1136 198c277,0 502,272 502,607 0,335 -225,694 -502,694 -277,0 -502,-359 -502,-694 0,-335 225,-607 502,-607z"/>
  <path class="fil0 str0" d="M1576 1118c6,10 6,22 26,23 20,1 118,-94 149,-204 30,-109 12,-209 -30,-219 -36,-9 -58,14 -85,44"/>
  <path class="fil0 str0" d="M695 1118c-7,10 -6,22 -26,23 -21,1 -119,-94 -149,-204 -31,-109 -12,-209 30,-219 35,-9 58,15 85,45"/>
  <path class="fil0 str0" d="M609 736c-170,-527 238,-711 527,-711 115,0 338,-90 299,150 223,0 270,261 225,562"/>
  <path class="fil0 str0" d="M2262 2179l0 -402c0,-66 -70,-79 -132,-101l-483 -171 -135 -261"/>
  <path class="fil0 str0" d="M8 2179l0 -402c0,-66 71,-79 133,-101l482 -171 136 -262"/>
  <path class="fil0 str0" d="M1152 1498l336 330 159 -323"/>
  <path class="fil0 str0" d="M1119 1498l-337 330 -159 -323"/>
  <path class="fil0 str0" d="M1298 2845l-103 -1048 70 -187"/>
  <path class="fil0 str0" d="M972 2845l104 -1048 -71 -187"/>
  <path class="fil1" d="M1363 1609c0,-24 10,-45 26,-61 14,-14 33,-23 54,-24l0 28c-14,1 -26,7 -35,16 -10,11 -17,25 -17,41 0,16 7,31 17,41 11,11 25,17 41,17 16,0 31,-6 41,-17 11,-10 17,-25 17,-41 0,-16 -6,-30 -17,-41 -9,-9 -21,-15 -34,-16l0 -28c21,1 40,10 54,24 16,16 25,37 25,61 0,24 -9,45 -25,61 -15,16 -37,25 -61,25 -23,0 -45,-9 -60,-25 -16,-16 -26,-37 -26,-61zm39 0c0,-13 6,-25 14,-33 7,-7 16,-12 27,-13l0 28c-3,1 -5,3 -7,5 -3,3 -6,8 -6,13 0,5 3,10 6,14 3,3 8,5 13,5 6,0 10,-2 14,-5 3,-4 5,-9 5,-14 0,-5 -2,-10 -5,-13 -2,-2 -4,-4 -7,-5l0 -28c10,1 20,6 27,13 8,8 13,20 13,33 0,13 -5,25 -13,33 -9,9 -21,14 -34,14 -13,0 -24,-5 -33,-14 -8,-8 -14,-20 -14,-33z"/>
 </g>
</svg>
